<svg xmlns="http://www.w3.org/2000/svg" xmlns:xlink="http://www.w3.org/1999/xlink" viewBox="0,0,256,256" width="30px" height="30px" fill-rule="nonzero"><g fill="#666666" fill-rule="nonzero" stroke="none" stroke-width="1" stroke-linecap="butt" stroke-linejoin="miter" stroke-miterlimit="10" stroke-dasharray="" stroke-dashoffset="0" font-family="none" font-weight="none" font-size="none" text-anchor="none" style="mix-blend-mode: normal"><g transform="scale(8.53333,8.53333)"><path d="M6,4c-1.105,0 -2,0.895 -2,2v18c0,1.105 0.895,2 2,2h18c1.105,0 2,-0.895 2,-2v-18c0,-1.105 -0.895,-2 -2,-2zM14.99805,7c2.327,0 4.21875,1.89275 4.21875,4.21875c0,2.326 -1.89275,4.21484 -4.21875,4.21484c-2.326,0 -4.2168,-1.8918 -4.2168,-4.2168c0,-2.326 1.8908,-4.2178 4.2168,-4.2168zM14.99805,9.51953c-0.935,0 -1.69531,0.76127 -1.69531,1.69727c0,0.935 0.76031,1.69531 1.69531,1.69531c0.936,0 1.69727,-0.76031 1.69727,-1.69531c0,-0.936 -0.76127,-1.69727 -1.69727,-1.69727zM11.79492,15.46875c0.15402,0.02506 0.30481,0.08142 0.44531,0.16992c1.677,1.056 3.84053,1.056 5.51953,0c0.561,-0.354 1.3013,-0.18505 1.6543,0.37695c0.352,0.562 0.18505,1.3052 -0.37695,1.6582c-0.741,0.465 -1.54686,0.79437 -2.38086,0.98438l2.29297,2.29297c0.469,0.468 0.469,1.22827 0,1.69727c-0.469,0.469 -1.22827,0.469 -1.69727,0l-2.25195,-2.25195l-2.25195,2.25195c-0.235,0.235 -0.54261,0.35156 -0.84961,0.35156c-0.307,0 -0.61266,-0.11656 -0.84766,-0.35156c-0.469,-0.468 -0.46995,-1.23022 -0.00195,-1.69922l2.29297,-2.29102c-0.835,-0.19 -1.63986,-0.52133 -2.38086,-0.98633c-0.561,-0.353 -0.729,-1.09425 -0.375,-1.65625c0.26475,-0.4215 0.74694,-0.62206 1.20898,-0.54687z"></path></g></g></svg>